/* XPM */
static char *result[] = {
/* columns rows colors chars-per-pixel */
"32 32 9 1 ",
"  c #0E69DF",
". c #0E69E0",
"X c #0E6AE0",
"o c #0D70E5",
"O c #0A7CEE",
"+ c #0A7DEE",
"@ c #068FFC",
"# c #0593FF",
"$ c None",
/* pixels */
"$$$$$$$$$$$$$$$$$$$$$$$$$$$$$$$$",
"$$$$$$$$$$$$$$$$$$$$$$$$$$$$$$$$",
"$$$$$$$$$$$$$$$$$$$$$$$$$$$$$$$$",
"$$$$$$$$$$$$$$$$$$$$$$$$$$$$$$$$",
"$$$$$$$$$$$$$$$$$$$$$$$$$$$$$$$$",
"$$$$$$$$$$$$$$$$$$$$$$$$$$$$$$$$",
"$$$$$$$$$$$$$$$$$$$$$$$$$$$$$$$$",
"$$$$$$$$$$$$$$$$$$$$$$$$$$$$$$$$",
"$$$$$$$$$$$$$$$$$$$$$$$$$$$$$$$$",
"$$$$$$######$$$$$$$$$$$$$$$$$$$$",
"$$$$$########$$$$$$$$$$$$$$$$$$$",
"$$$$##########$$$$$$$$$$$$$$$$$$",
"$$$#####@@##################$$$$",
"$$####@OooO@#################$$$",
"$$####O XX.+#################$$$",
"$$###@oXXXXo@#################$$",
"$$###@oXXXXo@#################$$",
"$$####O.XX.+#################$$$",
"$$####@+oo+@#################$$$",
"$$$#####@@########$$##$$####$$$$",
"$$$$##########$$$$$$$$$$$$$$$$$$",
"$$$$$########$$$$$$$$$$$$$$$$$$$",
"$$$$$$#####$$$$$$$$$$$$$$$$$$$$$",
"$$$$$$$$$$$$$$$$$$$$$$$$$$$$$$$$",
"$$$$$$$$$$$$$$$$$$$$$$$$$$$$$$$$",
"$$$$$$$$$$$$$$$$$$$$$$$$$$$$$$$$",
"$$$$$$$$$$$$$$$$$$$$$$$$$$$$$$$$",
"$$$$$$$$$$$$$$$$$$$$$$$$$$$$$$$$",
"$$$$$$$$$$$$$$$$$$$$$$$$$$$$$$$$",
"$$$$$$$$$$$$$$$$$$$$$$$$$$$$$$$$",
"$$$$$$$$$$$$$$$$$$$$$$$$$$$$$$$$",
"$$$$$$$$$$$$$$$$$$$$$$$$$$$$$$$$"
};
