/* XPM */
static char *result[] = {
/* columns rows colors chars-per-pixel */
"32 32 22 1 ",
"  c #0E69DF",
". c #0E69E0",
"X c #0E6AE0",
"o c #0E6CE1",
"O c #0D6EE3",
"+ c #0D6FE4",
"@ c #0C71E6",
"# c #0C72E6",
"$ c #0B78EA",
"% c #0B78EB",
"& c #0884F4",
"* c #0885F4",
"= c #068EFB",
"- c #068FFC",
"; c #0591FD",
": c #0690FC",
"> c #0690FD",
", c #0691FD",
"< c #0592FE",
"1 c #0592FF",
"2 c #0593FF",
"3 c None",
/* pixels */
"33333333333333333333333333333333",
"33333333333333333333333333333333",
"33333333333333333333333333333333",
"33333333333333333333333333333333",
"33333333333333333333333333333333",
"33333333333333333333333333333333",
"33333333333333XXXX33333333333333",
"3333333333333XXXXXX3333333333333",
"333333333333XXX33XXX333333333333",
"333333333333XX3333XX333333333333",
"333333333333XX3333XX333333333333",
"333333333333++333333333333333333",
"33333333332<--122222223333333333",
"33333333322222222222222333333333",
"33333333322222222222222333333333",
"333333333222222::222222333333333",
"33333333322222&@@*22222333333333",
"3333333332222:@  @>2222333333333",
"3333333332222>#..#>2222333333333",
"33333333322222&oo*22222333333333",
"33333333322222=OO=22222333333333",
"33333333322222;$%;22222333333333",
"333333333222222,;222222333333333",
"33333333322222222222222333333333",
"33333333322222222222222333333333",
"33333333332222222222223333333333",
"33333333333333333333333333333333",
"33333333333333333333333333333333",
"33333333333333333333333333333333",
"33333333333333333333333333333333",
"33333333333333333333333333333333",
"33333333333333333333333333333333"
};
