/* XPM */
static char *result[] = {
/* columns rows colors chars-per-pixel */
"32 32 133 2 ",
"   c #010101",
".  c #060609",
"X  c #07090B",
"o  c #090A0D",
"O  c #0C0E12",
"+  c #0D1114",
"@  c #0F1118",
"#  c #121414",
"$  c #161719",
"%  c #14191C",
"&  c #191B1C",
"*  c #151C21",
"=  c #1B1E28",
"-  c #1E292E",
";  c #222426",
":  c #24262A",
">  c #2A2C2F",
",  c #222633",
"<  c #2C2E32",
"1  c #272C3A",
"2  c #2D3031",
"3  c #34363B",
"4  c #373B3C",
"5  c #383C3D",
"6  c #2D3243",
"7  c #2B3A40",
"8  c #393B40",
"9  c #313748",
"0  c #353C4F",
"q  c #363D51",
"w  c #3D4045",
"e  c #32434B",
"r  c #3B474D",
"t  c #394154",
"y  c #354850",
"u  c #3A4F57",
"i  c #404349",
"p  c #474B51",
"a  c #484C52",
"s  c #444D65",
"d  c #455D66",
"f  c #4B546D",
"g  c #485E69",
"h  c #555A63",
"j  c #585C63",
"k  c #4C5671",
"l  c #4F5975",
"z  c #515B77",
"x  c #525D7A",
"c  c #48626C",
"v  c #5E636B",
"b  c #4C6671",
"n  c #506B76",
"m  c #56617F",
"M  c #516D78",
"N  c #53707B",
"B  c #64747B",
"V  c #6E737C",
"C  c #5E6B8C",
"Z  c #5D7C89",
"A  c #606C8D",
"S  c #677C85",
"D  c #6F7788",
"F  c #757B84",
"G  c #626F92",
"H  c #647194",
"J  c #677498",
"K  c #68759B",
"L  c #6A789E",
"P  c #6E7CA3",
"I  c #718289",
"U  c #7C828D",
"Y  c #638492",
"T  c #688897",
"R  c #7381A6",
"E  c #7483AC",
"W  c #7887B1",
"Q  c #7C8CB7",
"!  c #7E8EBA",
"~  c #7F90BD",
"^  c #8A919D",
"/  c #939AA6",
"(  c #959DA9",
")  c #8896B7",
"_  c #8192BF",
"`  c #98A0AC",
"'  c #82ACBE",
"]  c #9CA5B1",
"[  c #96A9B2",
"{  c #95A0B8",
"}  c #9AA4BC",
"|  c #A0A8B6",
" . c #8495C4",
".. c #8698C7",
"X. c #8A9AC6",
"o. c #8C9DC9",
"O. c #95A4CC",
"+. c #89B4C7",
"@. c #8DBACE",
"#. c #9BABD1",
"$. c #ACB5C3",
"%. c #B4BDCC",
"&. c #A6B5D8",
"*. c #B1BFDE",
"=. c #96C5DA",
"-. c #9CCADF",
";. c #BBC3D2",
":. c #B4C2DE",
">. c #B8C4DD",
",. c #BFC9D8",
"<. c #A1CEE1",
"1. c #B9C6E2",
"2. c #BDCAE3",
"3. c #B7D8E7",
"4. c #BDDFED",
"5. c #C3CDDD",
"6. c #C1CEE7",
"7. c #C2CFE8",
"8. c #C8D2E2",
"9. c #C5D1E9",
"0. c #CBD6E9",
"q. c #CED9EB",
"w. c #D1DCEE",
"e. c #D4DFF0",
"r. c #C5E0EB",
"t. c #D2E7EF",
"y. c #D6E1F2",
"u. c #D9E4F5",
"i. c #D5E9F1",
"p. c #E9F2F4",
"a. c #E7F4F9",
"s. c #FBFEFF",
"d. c None",
/* pixels */
"d.d.d.d.d.d.d.d.d.d.d.d.d.d.d.d.d.d.d.d.d.d.d.d.d.d.d.d.d.d.d.d.",
"d.d.d.d.d.d.d.d.d.d.d.d.d.d.d.d.d.d.d.d.d.d.d.d.d.d.d.d.d.d.d.d.",
"d.d.d.d.d.d.d.d.d.d.d.d.d.d.            d.d.d.d.d.d.d.d.d.d.d.d.",
"d.d.d.d.d.d.d.d.d.d.d.d.  . : 3 3 3 : .     d.d.d.d.d.d.d.d.d.d.",
"d.d.d.d.d.d.d.d.d.d.d.  o D 5.q.0.0.5.( 8 .   d.d.d.d.d.d.d.d.d.",
"d.d.d.d.d.d.d.d.d.d.d.  j t.y.u.y.q.8.,.%.a     d.d.d.d.d.d.d.d.",
"d.d.d.d.d.d.d.d.d.d.  O { y.q.` v 5 > & ; &     d.d.d.d.d.d.d.d.",
"d.d.d.d.d.d.d.d.d.d.  1 >.u./ o # e g S I B r O   d.d.d.d.d.d.d.",
"d.d.d.d.d.d.d.d.d.d.  t 2.u.v . N =.-.a.s.s.p.[ -   d.d.d.d.d.d.",
"d.d.d.d.d.d.d.d.      f 9.y.h * N @.-.3.r.t.i.4.T . d.d.d.d.d.d.",
"d.d.d.d.d.d.    ; : . C 9.y.j * c Y +.@.@.@.+.' Z o d.d.d.d.d.d.",
"d.d.d.d.d.d.  < ;./ o H 9.u.F X u b M N N N M b 3   d.d.d.d.d.d.",
"d.d.d.d.d.d.  h 9.D . H 1.u.$.$ + y d c c d e - .   d.d.d.d.d.d.",
"d.d.d.d.d.d.  f X.k . J *.e.e.U O   + % % + O #     d.d.d.d.d.d.",
"d.d.d.d.d.d.  k ..k o K &.e.e.e.] v p w h V | ^ . d.d.d.d.d.d.d.",
"d.d.d.d.d.d.  x ..k o L #.e.e.e.y.t.w.w.y.y.u.} o   d.d.d.d.d.d.",
"d.d.d.d.d.d.. C ..k o P o.0.y.y.e.e.e.y.e.e.u.O.O   d.d.d.d.d.d.",
"d.d.d.d.d.d.. G  .k X L  .:.y.w.e.e.y.w.e.e.e.) O   d.d.d.d.d.d.",
"d.d.d.d.d.d.. C ..k . J  .O.q.y.e.e.e.e.e.y.7.R O   d.d.d.d.d.d.",
"d.d.d.d.d.d.  l ..z . H  . .#.>.9.w.w.w.q.2.#.H . d.d.d.d.d.d.d.",
"d.d.d.d.d.d.  s ..C . C  . . . .X.O.O.O.O. ...x   d.d.d.d.d.d.d.",
"d.d.d.d.d.d.  = K C o G  . . . ._ !  . . . . .s   d.d.d.d.d.d.d.",
"d.d.d.d.d.d.d.  o O . C  . . .P 1 1 0 0 t K  .6   d.d.d.d.d.d.d.",
"d.d.d.d.d.d.d.d.      k .. . .x       O l ! E *   d.d.d.d.d.d.d.",
"d.d.d.d.d.d.d.d.d.d.  f  . ...k       9  . .E @   d.d.d.d.d.d.d.",
"d.d.d.d.d.d.d.d.d.d.  t  . . .k   d.  6 _  .P O   d.d.d.d.d.d.d.",
"d.d.d.d.d.d.d.d.d.d.  1 Q  .! 9 . > ; o 6 q , . d.d.d.d.d.d.d.d.",
"d.d.d.d.d.d.d.d.4 4 & . , 0 , . $ 4 4 ; # $ $ < 4 4 d.d.d.d.d.d.",
"d.d.d.d.d.d.d.d.5 4 4 ; # o # ; 4 4 4 4 5 4 5 5 5 4 d.d.d.d.d.d.",
"d.d.d.d.d.d.d.d.d.d.d.d.4 4 4 5 4 4 4 4 4 4 4 4 d.d.d.d.d.d.d.d.",
"d.d.d.d.d.d.d.d.d.d.d.d.d.d.d.d.d.d.d.d.d.d.d.d.d.d.d.d.d.d.d.d.",
"d.d.d.d.d.d.d.d.d.d.d.d.d.d.d.d.d.d.d.d.d.d.d.d.d.d.d.d.d.d.d.d."
};
