/* XPM */
static char *result[] = {
/* columns rows colors chars-per-pixel */
"32 32 13 1 ",
"  c #0693FF",
". c #199BFD",
"X c #1A9BFD",
"o c #1C9CFD",
"O c #1D9CFD",
"+ c #1E9CFD",
"@ c #A9D0F3",
"# c #BFD8F1",
"$ c #C0D8F1",
"% c #D8E1EF",
"& c #DAE2EF",
"* c #DBE2EF",
"= c None",
/* pixels */
"================================",
"================================",
"================================",
"===%%%%%&#oo#&%%%%&#oo#&%%%%%===",
"==%%%%%%&#oo#&%%%%&#oo#&%%%%%%==",
"==%%%%%%&#oo#&%%%%&#oo#&%%%%%%==",
"==%%%%%%&#oo#&%%%%&#oo#&%%%%%%==",
"==%%%%%%&#oo#&%%%%&#oo#&%%%%%%==",
"==%%%%%%&#oo#&%%%%&#oo#&%%%%%%==",
"==&&&&&&*$OO$*&&&&*$OO$*&&&&&&==",
"==######$@XX@$####$@XX@$######==",
"==ooooooO.  .OO++OO.  .Ooooooo==",
"==oooooooO++OO.  .OO++Oooooooo==",
"==###########$@XX@$###########==",
"==&&&&&&&&&&&*$OO$*&&&&&&&&&&&==",
"==%%%%%%%%%%%&#oo#&%%%%%%%%%%%==",
"==%%%%%%%%%%%&#oo#&%%%%%%%%%%%==",
"==&&&&&&&&&&&*$OO$*&&&&&&&&&&&==",
"==###########$@XX@$###########==",
"==oooooooO++OO.  .OO++Oooooooo==",
"==ooooooO.  .OO++OO.  .Ooooooo==",
"==######$@XX@$####$@XX@$######==",
"==&&&&&&*$OO$*&&&&*$OO$*&&&&&&==",
"==%%%%%%&#oo#&%%%%&#oo#&%%%%%%==",
"==%%%%%%&#oo#&%%%%&#oo#&%%%%%%==",
"==%%%%%%&#oo#&%%%%&#oo#&%%%%%%==",
"==%%%%%%&#oo#&%%%%&#oo#&%%%%%%==",
"==%%%%%%&#oo#&%%%%&#oo#&%%%%%%==",
"===%%%%%&#oo#&%%%%&#oo#&%%%%%===",
"================================",
"================================",
"================================"
};
